<?xml version="1.0" encoding="utf-8"?>
<!-- Generator: Adobe Illustrator 14.0.0, SVG Export Plug-In . SVG Version: 6.00 Build 43363)  -->
<!DOCTYPE svg PUBLIC "-//W3C//DTD SVG 1.1//EN" "http://www.w3.org/Graphics/SVG/1.1/DTD/svg11.dtd">
<svg version="1.1" id="Capa_1" xmlns="http://www.w3.org/2000/svg" xmlns:xlink="http://www.w3.org/1999/xlink" x="0px" y="0px"
	 width="512px" height="512px" viewBox="0 0 512 512" enable-background="new 0 0 512 512" xml:space="preserve">
<g>
	<path fill="#175890" d="M363.703,141.419c-29.194,6.096-60.472,9.704-92.702,10.562v89.018h105.505
		C375.534,205.935,371.159,172.227,363.703,141.419z"/>
	<path fill="#175890" d="M105.477,240.998c0.989-37.422,5.672-73.537,13.697-106.687c-26.28-7.377-50.325-16.914-71.178-28.376
		C19.436,145.345,2.816,191.865,0,240.998H105.477z"/>
	<path fill="#175890" d="M105.477,271.002H0c2.815,49.132,19.436,95.651,47.995,135.063c20.853-11.463,44.898-21,71.179-28.377
		C111.149,344.539,106.465,308.424,105.477,271.002z"/>
	<path fill="#175890" d="M299.141,17.337c-9.173-7.76-18.592-12.987-28.139-15.668v120.306c29.458-0.82,57.956-4.051,84.523-9.451
		c-4.875-14.902-10.542-28.898-16.972-41.757C327.002,47.666,313.741,29.688,299.141,17.337z"/>
	<path fill="#175890" d="M127.237,406.527c-21.962,6.168-42.144,13.944-59.873,23.183c2.381,2.579,4.805,5.129,7.301,7.626
		c28.841,28.84,63.341,49.962,100.996,62.334c-10.549-12.467-20.304-27.524-29.051-45.018
		C139.208,439.848,132.735,423.711,127.237,406.527z"/>
	<path fill="#175890" d="M173.446,70.766c-6.429,12.858-12.096,26.854-16.972,41.757c26.567,5.4,55.065,8.631,84.523,9.451V1.669
		c-9.548,2.682-18.966,7.908-28.139,15.668C198.257,29.688,184.997,47.666,173.446,70.766z"/>
	<path fill="#175890" d="M406.523,271.002c-0.989,37.422-5.672,73.537-13.696,106.686c26.279,7.377,50.325,16.914,71.178,28.377
		c28.56-39.411,45.18-85.93,47.996-135.063H406.523z"/>
	<path fill="#175890" d="M384.763,105.472c21.962-6.168,42.144-13.945,59.872-23.183c-2.38-2.579-4.804-5.129-7.301-7.625
		c-28.84-28.84-63.341-49.961-100.996-62.334c10.549,12.467,20.304,27.523,29.051,45.017
		C372.79,72.151,379.266,88.289,384.763,105.472z"/>
	<path fill="#175890" d="M338.553,441.234c6.43-12.858,12.096-26.856,16.972-41.758c-26.567-5.4-55.065-8.631-84.523-9.451v120.306
		c9.548-2.681,18.966-7.907,28.139-15.669C313.741,482.311,327.002,464.336,338.553,441.234z"/>
	<path fill="#175890" d="M392.826,134.312c8.024,33.149,12.707,69.265,13.696,106.687H512
		c-2.815-49.133-19.437-95.652-47.996-135.062C443.152,117.398,419.106,126.935,392.826,134.312z"/>
	<path fill="#175890" d="M271.001,271.002v89.017c32.23,0.858,63.507,4.467,92.702,10.563c7.456-30.81,11.831-64.518,12.803-99.579
		H271.001z"/>
	<path fill="#175890" d="M240.997,240.998V151.98c-32.23-0.857-63.507-4.466-92.702-10.562c-7.456,30.81-11.83,64.517-12.803,99.579
		H240.997z"/>
	<path fill="#175890" d="M127.237,105.472c5.497-17.185,11.972-33.321,19.373-48.125c8.747-17.493,18.502-32.551,29.051-45.017
		c-37.654,12.373-72.155,33.494-100.996,62.335c-2.496,2.496-4.92,5.046-7.301,7.625C85.093,91.527,105.275,99.304,127.237,105.472z
		"/>
	<path fill="#175890" d="M384.763,406.527c-5.496,17.184-11.972,33.321-19.373,48.125c-8.747,17.492-18.502,32.551-29.051,45.018
		c37.654-12.372,72.155-33.494,100.996-62.334c2.496-2.496,4.921-5.046,7.301-7.626
		C426.906,420.471,406.725,412.695,384.763,406.527z"/>
	<path fill="#175890" d="M240.997,271.002H135.492c0.973,35.063,5.347,68.771,12.803,99.579
		c29.194-6.096,60.472-9.704,92.702-10.563V271.002z"/>
	<path fill="#175890" d="M212.859,494.663c9.173,7.761,18.592,12.987,28.139,15.669V390.026c-29.458,0.82-57.956,4.05-84.523,9.451
		c4.876,14.901,10.542,28.899,16.972,41.758C184.997,464.336,198.257,482.311,212.859,494.663z"/>
</g>
</svg>
